<svg width="7" height="10" viewBox="0 0 7 10" fill="none" xmlns="http://www.w3.org/2000/svg">
<path id="Vector" d="M3.5 5C3.74062 5 3.94661 4.91432 4.11797 4.74297C4.28932 4.57161 4.375 4.36562 4.375 4.125C4.375 3.88437 4.28932 3.67839 4.11797 3.50703C3.94661 3.33568 3.74062 3.25 3.5 3.25C3.25937 3.25 3.05339 3.33568 2.88203 3.50703C2.71068 3.67839 2.625 3.88437 2.625 4.125C2.625 4.36562 2.71068 4.57161 2.88203 4.74297C3.05339 4.91432 3.25937 5 3.5 5ZM3.5 8.21562C4.38958 7.39896 5.04948 6.65703 5.47969 5.98984C5.9099 5.32266 6.125 4.73021 6.125 4.2125C6.125 3.41771 5.87161 2.76693 5.36484 2.26016C4.85807 1.75339 4.23646 1.5 3.5 1.5C2.76354 1.5 2.14193 1.75339 1.63516 2.26016C1.12839 2.76693 0.875 3.41771 0.875 4.2125C0.875 4.73021 1.0901 5.32266 1.52031 5.98984C1.95052 6.65703 2.61042 7.39896 3.5 8.21562ZM3.5 9.375C2.32604 8.37604 1.44922 7.44818 0.869531 6.59141C0.289844 5.73464 0 4.94167 0 4.2125C0 3.11875 0.351823 2.2474 1.05547 1.59844C1.75911 0.949479 2.57396 0.625 3.5 0.625C4.42604 0.625 5.24089 0.949479 5.94453 1.59844C6.64818 2.2474 7 3.11875 7 4.2125C7 4.94167 6.71016 5.73464 6.13047 6.59141C5.55078 7.44818 4.67396 8.37604 3.5 9.375Z" fill="white"/>
</svg>
